<?xml version="1.0" standalone="no"?>
<!DOCTYPE svg PUBLIC "-//W3C//DTD SVG 20010904//EN"
 "http://www.w3.org/TR/2001/REC-SVG-20010904/DTD/svg10.dtd">
<svg version="1.0" xmlns="http://www.w3.org/2000/svg"
 width="260.000000pt" height="260.000000pt" viewBox="0 0 260.000000 260.000000"
 preserveAspectRatio="xMidYMid meet">
<metadata>
Created by potrace 1.14, written by Peter Selinger 2001-2017
</metadata>
<g transform="translate(0.000000,260.000000) scale(0.100000,-0.100000)"
fill="#000000" stroke="none">
<path d="M615 2053 c-150 -9 -266 -48 -364 -121 -131 -99 -192 -255 -162 -416
15 -81 43 -136 97 -190 85 -84 184 -127 399 -171 172 -35 200 -42 263 -72 92
-43 125 -140 75 -223 -72 -122 -354 -148 -489 -45 -20 15 -55 57 -79 94 -50
79 -86 101 -156 96 -116 -7 -160 -114 -102 -246 85 -192 376 -297 703 -255 70
10 190 49 246 82 54 32 129 106 161 161 54 93 72 250 39 354 -51 162 -180 241
-506 309 -255 53 -322 89 -339 183 -22 119 99 210 269 202 80 -4 97 -8 147
-34 44 -22 79 -60 123 -133 44 -71 117 -99 192 -73 66 22 88 61 82 139 -8 103
-104 226 -226 287 -102 51 -246 79 -373 72z"/>
<path d="M1444 2020 c-38 -12 -72 -48 -87 -92 -9 -25 -12 -205 -12 -664 1
-693 -1 -672 63 -719 26 -19 43 -20 372 -20 190 0 361 3 380 7 238 50 372 200
372 418 0 96 -28 172 -87 238 -51 57 -144 109 -209 118 -25 4 -46 10 -46 13 0
4 21 13 46 20 92 28 182 120 210 218 21 72 15 181 -13 244 -42 94 -125 162
-246 202 -56 18 -91 21 -387 23 -184 2 -338 -1 -356 -6z m611 -257 c22 -11 51
-36 65 -55 21 -28 25 -44 25 -104 0 -90 -26 -133 -105 -172 -51 -25 -65 -27
-216 -30 l-163 -4 0 197 -1 197 178 -4 c158 -3 181 -5 217 -25z m2 -588 c105
-31 161 -113 150 -224 -6 -73 -37 -122 -97 -155 -62 -34 -121 -42 -295 -41
l-150 0 -2 217 -2 217 27 3 c74 8 320 -3 369 -17z"/>
</g>
</svg>
